<svg width="48" height="49" viewBox="0 0 48 49" fill="none" xmlns="http://www.w3.org/2000/svg">
<circle cx="24" cy="24.2568" r="24" fill="#F1CB00"/>
<path d="M34 16.7568H30.25V14.2568C30.25 12.8781 29.1287 11.7568 27.75 11.7568H20.25C18.8712 11.7568 17.75 12.8781 17.75 14.2568V16.7568H14C12.6212 16.7568 11.5 17.8781 11.5 19.2568V33.0068C11.5 34.3856 12.6212 35.5068 14 35.5068H34C35.3787 35.5068 36.5 34.3856 36.5 33.0068V19.2568C36.5 17.8781 35.3787 16.7568 34 16.7568ZM27.75 14.2568V16.7568H20.25V14.2568H27.75ZM19 19.2568H34V23.0068H14V19.2568H19ZM14 33.0068V25.5068H21.5V28.0068H26.5V25.5068H34L34.0012 33.0068H14Z" fill="#232323"/>
</svg>
