<svg width="88" height="88" viewBox="0 0 88 88" fill="none" xmlns="http://www.w3.org/2000/svg">
<path d="M73.3333 22H62.3333V14.6666C62.3333 10.6223 59.0443 7.33331 55 7.33331H33C28.9557 7.33331 25.6667 10.6223 25.6667 14.6666V22H14.6667C10.6223 22 7.33333 25.289 7.33333 29.3333V69.6667C7.33333 73.711 10.6223 77 14.6667 77H73.3333C77.3777 77 80.6667 73.711 80.6667 69.6667V29.3333C80.6667 25.289 77.3777 22 73.3333 22ZM55 14.6666V22H33V14.6666H55ZM29.3333 29.3333H73.3333V40.3333H14.6667V29.3333H29.3333ZM14.6667 69.6667V47.6666H36.6667V55H51.3333V47.6666H73.3333L73.337 69.6667H14.6667Z" fill="#F1CB00"/>
</svg>
