<svg width="88" height="88" viewBox="0 0 88 88" fill="none" xmlns="http://www.w3.org/2000/svg">
<path d="M58.663 31.1667H65.9963C65.9963 20.7643 55.8947 16.0197 47.663 14.927V7.33334H40.3297V14.927C32.098 16.0197 21.9963 20.7643 21.9963 31.1667C21.9963 41.0887 31.7717 46.2477 40.3297 47.41V65.6333C35.0203 64.713 29.3297 61.8787 29.3297 56.8333H21.9963C21.9963 66.3263 30.888 71.9363 40.3297 73.0987V80.6667H47.663V73.0767C55.8947 71.984 65.9963 67.2357 65.9963 56.8333C65.9963 46.431 55.8947 41.6863 47.663 40.5937V22.3667C52.5397 23.243 58.663 25.817 58.663 31.1667V31.1667ZM29.3297 31.1667C29.3297 25.817 35.453 23.243 40.3297 22.3667V39.963C35.3027 39.0353 29.3297 36.289 29.3297 31.1667ZM58.663 56.8333C58.663 62.183 52.5397 64.757 47.663 65.6333V48.0333C52.5397 48.9097 58.663 51.4837 58.663 56.8333V56.8333Z" fill="#F1CB00"/>
</svg>
