<svg width="88" height="88" viewBox="0 0 88 88" fill="none" xmlns="http://www.w3.org/2000/svg">
<path d="M73.3333 14.6667H14.6667C10.6223 14.6667 7.33334 17.9557 7.33334 22V66C7.33334 70.0443 10.6223 73.3333 14.6667 73.3333H73.3333C77.3777 73.3333 80.6667 70.0443 80.6667 66V22C80.6667 17.9557 77.3777 14.6667 73.3333 14.6667ZM73.3333 22V23.8737L44 46.6913L14.6667 23.8773V22H73.3333ZM14.6667 66V33.1613L41.7487 54.2263C42.3907 54.7307 43.1836 55.0048 44 55.0048C44.8165 55.0048 45.6093 54.7307 46.2513 54.2263L73.3333 33.1613L73.3407 66H14.6667Z" fill="#F1CB00"/>
</svg>
