<svg width="88" height="88" viewBox="0 0 88 88" fill="none" xmlns="http://www.w3.org/2000/svg">
<path d="M60.8813 40.5094C63.1145 36.7037 64.0789 32.2862 63.635 27.896C62.9787 21.3547 59.3267 15.5724 53.3573 11.616L49.3057 17.7247C53.4087 20.4454 55.9057 24.321 56.3383 28.6294C56.5378 30.6317 56.2885 32.6534 55.6086 34.5473C54.9287 36.4412 53.8352 38.1598 52.4077 39.578L48.037 43.9487L53.9697 45.6904C69.487 50.237 69.6667 65.8424 69.6667 66H77C77 59.4404 73.4947 46.6217 60.8813 40.5094Z" fill="#F1CB00"/>
<path d="M34.8333 44C42.922 44 49.5 37.422 49.5 29.3334C49.5 21.2447 42.922 14.6667 34.8333 14.6667C26.7446 14.6667 20.1666 21.2447 20.1666 29.3334C20.1666 37.422 26.7446 44 34.8333 44ZM34.8333 22C38.8776 22 42.1666 25.289 42.1666 29.3334C42.1666 33.3777 38.8776 36.6667 34.8333 36.6667C30.789 36.6667 27.5 33.3777 27.5 29.3334C27.5 25.289 30.789 22 34.8333 22ZM40.3333 47.6667H29.3333C17.2003 47.6667 7.33331 57.5337 7.33331 69.6667V73.3334H14.6666V69.6667C14.6666 61.578 21.2446 55 29.3333 55H40.3333C48.422 55 55 61.578 55 69.6667V73.3334H62.3333V69.6667C62.3333 57.5337 52.4663 47.6667 40.3333 47.6667Z" fill="#F1CB00"/>
</svg>
