<svg width="88" height="88" viewBox="0 0 88 88" fill="none" xmlns="http://www.w3.org/2000/svg">
<path d="M22.0366 7.33331C14.96 7.33331 9.20331 13.09 9.20331 20.1666C9.20331 25.96 13.09 30.811 18.37 32.4023V58.6556C18.3663 59.312 18.469 65.186 22.6746 69.4026C25.2706 72.0133 28.7466 73.3333 33 73.3333V80.6666L47.6666 69.6666L33 58.6666V66C26.3156 66 25.7253 60.3753 25.7033 58.6666V32.4023C30.9833 30.811 34.87 25.96 34.87 20.1666C34.87 13.09 29.1096 7.33331 22.0366 7.33331ZM22.0366 25.6666C19.0043 25.6666 16.5366 23.199 16.5366 20.1666C16.5366 17.1343 19.0043 14.6666 22.0366 14.6666C25.069 14.6666 27.5366 17.1343 27.5366 20.1666C27.5366 23.199 25.069 25.6666 22.0366 25.6666ZM69.7033 55.5976V29.3223C69.685 23.4336 65.7543 14.6666 55 14.6666V7.33331L40.3333 18.3333L55 29.3333V22C61.7063 22 62.337 27.643 62.37 29.3333V55.5976C57.09 57.189 53.2033 62.04 53.2033 67.8333C53.2033 74.91 58.96 80.6666 66.0366 80.6666C73.1133 80.6666 78.87 74.91 78.87 67.8333C78.87 62.04 74.9833 57.189 69.7033 55.5976ZM66.0366 73.3333C63.0043 73.3333 60.5366 70.8656 60.5366 67.8333C60.5366 64.801 63.0043 62.3333 66.0366 62.3333C69.069 62.3333 71.5366 64.801 71.5366 67.8333C71.5366 70.8656 69.069 73.3333 66.0366 73.3333Z" fill="#F1CB00"/>
</svg>
