<svg width="88" height="88" viewBox="0 0 88 88" fill="none" xmlns="http://www.w3.org/2000/svg">
<path d="M64.9257 45.0743C64.5854 44.7335 64.1814 44.4631 63.7365 44.2787C63.2917 44.0942 62.8149 43.9993 62.3333 43.9993C61.8518 43.9993 61.3749 44.0942 60.9301 44.2787C60.4853 44.4631 60.0812 44.7335 59.741 45.0743L53.8963 50.919C51.1867 50.1123 46.1303 48.279 42.9257 45.0743C39.721 41.8697 37.8877 36.8133 37.081 34.1037L42.9257 28.259C43.2665 27.9188 43.5368 27.5147 43.7213 27.0699C43.9058 26.625 44.0007 26.1482 44.0007 25.6667C44.0007 25.1851 43.9058 24.7083 43.7213 24.2634C43.5368 23.8186 43.2665 23.4145 42.9257 23.0743L28.259 8.40765C27.9188 8.06685 27.5147 7.79648 27.0699 7.61201C26.625 7.42753 26.1482 7.33258 25.6667 7.33258C25.1851 7.33258 24.7083 7.42753 24.2635 7.61201C23.8186 7.79648 23.4145 8.06685 23.0743 8.40765L13.1303 18.3517C11.737 19.745 10.9523 21.659 10.9817 23.6133C11.066 28.8347 12.4483 46.97 26.741 61.2627C41.0337 75.5553 59.169 76.934 64.394 77.022H64.4967C66.4327 77.022 68.2623 76.2593 69.6483 74.8733L79.5923 64.9293C79.9331 64.5891 80.2035 64.185 80.388 63.7402C80.5724 63.2954 80.6674 62.8185 80.6674 62.337C80.6674 61.8554 80.5724 61.3786 80.388 60.9338C80.2035 60.489 79.9331 60.0849 79.5923 59.7447L64.9257 45.0743ZM64.46 69.685C59.884 69.608 44.2273 68.3797 31.9257 56.0743C19.5837 43.7323 18.3883 28.0207 18.315 23.5363L25.6667 16.1847L35.1487 25.6667L30.4077 30.4077C29.9767 30.8383 29.6598 31.3696 29.4857 31.9534C29.3116 32.5373 29.2857 33.1553 29.4103 33.7517C29.4983 34.1733 31.6507 44.1723 37.7373 50.259C43.824 56.3457 53.823 58.498 54.2447 58.586C54.8407 58.7142 55.4593 58.6903 56.0437 58.5167C56.6281 58.3431 57.1594 58.0252 57.5887 57.5923L62.3333 52.8513L71.8153 62.3333L64.46 69.685V69.685Z" fill="#F1CB00"/>
</svg>
