<svg width="88" height="88" viewBox="0 0 88 88" fill="none" xmlns="http://www.w3.org/2000/svg">
<path d="M44 7.33331C23.782 7.33331 7.33333 23.782 7.33333 44C7.33333 64.218 23.782 80.6666 44 80.6666C64.218 80.6666 80.6667 64.218 80.6667 44C80.6667 23.782 64.218 7.33331 44 7.33331ZM44 73.3333C27.8263 73.3333 14.6667 60.1736 14.6667 44C14.6667 27.8263 27.8263 14.6666 44 14.6666C60.1737 14.6666 73.3333 27.8263 73.3333 44C73.3333 60.1736 60.1737 73.3333 44 73.3333Z" fill="#F1CB00"/>
<path d="M47.6667 25.6667H40.3333V45.518L52.4077 57.5924L57.5923 52.4077L47.6667 42.482V25.6667Z" fill="#F1CB00"/>
</svg>
