<svg width="48" height="49" viewBox="0 0 48 49" fill="none" xmlns="http://www.w3.org/2000/svg">
<circle cx="24" cy="24.2568" r="24" fill="#F1CB00"/>
<path d="M24 11.7568C17.1075 11.7568 11.5 17.3643 11.5 24.2568C11.5 31.1493 17.1075 36.7568 24 36.7568C30.8925 36.7568 36.5 31.1493 36.5 24.2568C36.5 17.3643 30.8925 11.7568 24 11.7568ZM24 34.2568C18.4862 34.2568 14 29.7706 14 24.2568C14 18.7431 18.4862 14.2568 24 14.2568C29.5137 14.2568 34 18.7431 34 24.2568C34 29.7706 29.5137 34.2568 24 34.2568Z" fill="#232323"/>
<path d="M25.25 18.0068H22.75V24.7743L26.8663 28.8906L28.6337 27.1231L25.25 23.7393V18.0068Z" fill="#232323"/>
</svg>
