<svg width="88" height="88" viewBox="0 0 88 88" fill="none" xmlns="http://www.w3.org/2000/svg">
<path d="M73.3333 14.6667H14.6667C10.6223 14.6667 7.33334 17.9557 7.33334 22V66C7.33334 70.0444 10.6223 73.3334 14.6667 73.3334H73.3333C77.3777 73.3334 80.6667 70.0444 80.6667 66V22C80.6667 17.9557 77.3777 14.6667 73.3333 14.6667ZM14.6667 66V22H73.3333L73.337 66H14.6667Z" fill="#F1CB00"/>
<path d="M23.8333 40.3333H34.8333C35.3196 40.3333 35.7859 40.1402 36.1297 39.7964C36.4735 39.4526 36.6667 38.9862 36.6667 38.5V31.1667C36.6667 30.6804 36.4735 30.2141 36.1297 29.8703C35.7859 29.5265 35.3196 29.3333 34.8333 29.3333H23.8333C23.3471 29.3333 22.8808 29.5265 22.537 29.8703C22.1932 30.2141 22 30.6804 22 31.1667V38.5C22 38.9862 22.1932 39.4526 22.537 39.7964C22.8808 40.1402 23.3471 40.3333 23.8333 40.3333ZM22 51.3333H44V58.6703H22V51.3333ZM47.6667 51.3333H66V58.6703H47.6667V51.3333Z" fill="#F1CB00"/>
</svg>
