<svg width="88" height="88" viewBox="0 0 88 88" fill="none" xmlns="http://www.w3.org/2000/svg">
<path fill-rule="evenodd" clip-rule="evenodd" d="M3.66667 10.406C3.66667 8.61865 4.37671 6.90447 5.64058 5.6406C6.90445 4.37673 8.61862 3.6667 10.406 3.6667H77.5867C78.4724 3.66525 79.3498 3.83853 80.1685 4.17661C80.9872 4.51469 81.7312 5.01093 82.3579 5.63693C82.9846 6.26293 83.4816 7.00638 83.8206 7.82473C84.1596 8.64308 84.3338 9.52025 84.3333 10.406V77.5867C84.3343 78.4726 84.1606 79.3501 83.8221 80.1688C83.4836 80.9876 82.987 81.7315 82.3607 82.3582C81.7344 82.9848 80.9907 83.4818 80.1722 83.8207C79.3536 84.1596 78.4763 84.3338 77.5903 84.3334H10.406C9.52068 84.3334 8.64402 84.1589 7.82613 83.82C7.00823 83.4811 6.26513 82.9844 5.63928 82.3582C5.01343 81.732 4.51709 80.9886 4.17862 80.1705C3.84015 79.3524 3.66619 78.4757 3.66667 77.5904V10.406ZM35.596 34.4227H46.519V39.908C48.0957 36.7547 52.129 33.9167 58.19 33.9167C69.8097 33.9167 72.5633 40.1977 72.5633 51.722V73.0694H60.8043V54.3474C60.8043 47.784 59.2277 44.0807 55.2237 44.0807C49.6687 44.0807 47.3587 48.0737 47.3587 54.3474V73.0694H35.596V34.4227ZM15.4293 72.567H27.192V33.9167H15.4293V72.5634V72.567ZM28.875 21.3107C28.8972 22.3178 28.718 23.3192 28.3479 24.2562C27.9778 25.1931 27.4243 26.0467 26.7199 26.7668C26.0154 27.4869 25.1742 28.0591 24.2457 28.4497C23.3171 28.8403 22.3199 29.0416 21.3125 29.0416C20.3051 29.0416 19.3079 28.8403 18.3793 28.4497C17.4508 28.0591 16.6096 27.4869 15.9052 26.7668C15.2007 26.0467 14.6472 25.1931 14.2771 24.2562C13.907 23.3192 13.7278 22.3178 13.75 21.3107C13.7935 19.3338 14.6094 17.4526 16.0229 16.0699C17.4364 14.6872 19.3352 13.9129 21.3125 13.9129C23.2899 13.9129 25.1886 14.6872 26.6021 16.0699C28.0156 17.4526 28.8315 19.3338 28.875 21.3107V21.3107Z" fill="#F1CB00"/>
</svg>
