<svg width="88" height="88" viewBox="0 0 88 88" fill="none" xmlns="http://www.w3.org/2000/svg">
<path fill-rule="evenodd" clip-rule="evenodd" d="M34.573 32.8863H48.191V39.6696C50.1527 35.7683 55.1833 32.263 62.7403 32.263C77.2273 32.263 80.6667 40.029 80.6667 54.2776V80.6666H66V57.5226C66 49.4083 64.0383 44.8323 59.0443 44.8323C52.118 44.8323 49.2397 49.764 49.2397 57.519V80.6666H34.573V32.8863V32.8863ZM9.42334 80.0433H24.09V32.263H9.42334V80.0433V80.0433ZM26.191 16.6833C26.1916 17.9127 25.9477 19.1298 25.4738 20.2641C24.9998 21.3984 24.3051 22.4272 23.43 23.2906C21.6568 25.0529 19.2566 26.0394 16.7567 26.0333C14.2611 26.0316 11.8665 25.0477 10.0907 23.2943C9.21879 22.4279 8.52642 21.398 8.05327 20.2636C7.58012 19.1291 7.33547 17.9125 7.33334 16.6833C7.33334 14.201 8.32334 11.825 10.0943 10.0723C11.8686 8.31656 14.2642 7.33222 16.7603 7.33331C19.261 7.33331 21.659 8.31965 23.43 10.0723C25.1973 11.825 26.191 14.201 26.191 16.6833Z" fill="#F1CB00"/>
</svg>
