<svg width="49" height="49" viewBox="0 0 49 49" fill="none" xmlns="http://www.w3.org/2000/svg">
<path d="M4.77197 24.443C4.77197 31.5671 10.4662 37.3621 17.4659 37.3621C21.0603 37.3621 25.0008 35.845 28.0081 33.306L28.148 33.199C28.5698 32.868 32.3421 29.9624 34.9736 29.9624C35.2049 29.9618 35.4293 29.8838 35.6111 29.741C35.7929 29.5982 35.9216 29.3988 35.9768 29.1745L35.9768 28.5159L35.9259 20.5433L35.9259 19.5101C35.8477 19.3227 35.7156 19.1626 35.5464 19.0499C35.3773 18.9373 35.1785 18.8771 34.9752 18.8771C32.6478 18.8771 29.2594 16.5415 28.1499 15.6416C28.1074 15.6072 28.0614 15.5772 28.0128 15.5521L27.8771 15.4676C24.8689 12.9938 20.9867 11.5225 17.4661 11.5225C10.4665 11.5237 4.77214 17.3181 4.77197 24.443Z" fill="#FFD111"/>
<g style="mix-blend-mode:multiply">
<path fill-rule="evenodd" clip-rule="evenodd" d="M28.1111 15.5785L28.1879 15.6373C28.6107 15.9691 32.3912 18.8809 35.0284 18.8809C35.2602 18.8816 35.4851 18.9597 35.6673 19.1028C35.8495 19.246 35.9785 19.4458 36.0338 19.6706V20.3306L35.9828 28.3207V29.3561C35.9044 29.5439 35.7721 29.7044 35.6025 29.8172C35.433 29.9301 35.2338 29.9904 35.03 29.9905C32.6975 29.9905 29.3018 32.3311 28.1898 33.2329C28.1472 33.2675 28.1012 33.2975 28.0524 33.3227L27.9165 33.4074C24.9017 35.8865 21.011 37.361 17.4827 37.361C11.5961 37.36 6.63055 33.2705 5.18555 27.7354C6.86629 32.0612 10.8042 35.3524 15.7317 35.9749C22.8899 36.8793 29.4259 31.8096 30.3302 24.6514C30.7505 21.3252 29.8808 18.1334 28.1111 15.5785Z" fill="#FDD333" fill-opacity="0.5"/>
</g>
<g style="mix-blend-mode:lighten">
<path d="M7.1841 22.1757C7.22055 21.6329 7.30459 21.0943 7.43523 20.5662C7.56103 20.047 7.7284 19.5387 7.93573 19.0463C8.34839 18.0761 8.92486 17.1841 9.63994 16.4093C9.82362 16.2217 10.0018 16.0286 10.1998 15.8578C10.3873 15.6731 10.5986 15.5136 10.7966 15.3439C10.9011 15.263 11.0089 15.1855 11.114 15.1063L11.2733 14.9869L11.438 14.8754L11.7692 14.6517C11.8826 14.5809 11.9976 14.5129 12.1137 14.4415C13.0292 13.8861 14.0161 13.4324 15.0351 13.0056C13.9288 13.1458 12.8519 13.4618 11.8452 13.9416C11.7197 14.0034 11.5925 14.0636 11.4665 14.1271L11.1004 14.3366L10.9162 14.4419L10.7397 14.5595C10.623 14.638 10.5035 14.7149 10.3879 14.7957C10.1632 14.9685 9.93187 15.1346 9.72369 15.3286C9.51552 15.5226 9.3101 15.7194 9.11019 15.9218C8.33403 16.7619 7.75237 17.7626 7.40653 18.8528C7.23747 19.3914 7.1298 19.9474 7.08558 20.5102C7.05355 21.0701 7.05984 21.6341 7.1841 22.1757Z" fill="#FFDD5C"/>
</g>
<path fill-rule="evenodd" clip-rule="evenodd" d="M12.7845 20.4236C12.7908 20.4257 12.7992 20.4267 12.8097 20.4267H12.8853C13.0491 20.4267 13.2139 20.4047 13.3798 20.3606C13.5456 20.3165 13.6958 20.2556 13.8301 20.1779C13.9645 20.0981 14.0737 20.0037 14.1577 19.8945C14.2417 19.7832 14.2837 19.6614 14.2837 19.5291C14.2837 19.4577 14.2679 19.3948 14.2364 19.3402C14.2049 19.2835 14.1608 19.2362 14.1041 19.1984C14.0496 19.1606 13.9824 19.1323 13.9026 19.1134C13.8249 19.0924 13.7388 19.0819 13.6443 19.0819C13.4784 19.0819 13.3168 19.1029 13.1593 19.1449C13.0018 19.1869 12.8538 19.2446 12.7152 19.3181C12.5766 19.3895 12.4496 19.4745 12.3341 19.5732C12.2186 19.6698 12.1189 19.7758 12.0349 19.8913C11.9509 20.0047 11.8858 20.1233 11.8396 20.2472C11.7934 20.3711 11.7703 20.495 11.7703 20.6189C11.7703 20.7428 11.7934 20.8603 11.8396 20.9716C11.9845 20.9758 12.1199 20.9863 12.2459 21.0031C12.3719 21.0199 12.4811 21.0462 12.5735 21.0819C12.6659 21.1154 12.7383 21.1595 12.7908 21.2141C12.8433 21.2687 12.8695 21.3349 12.8695 21.4126C12.8695 21.4965 12.838 21.5606 12.775 21.6047C12.7121 21.6488 12.6333 21.6708 12.5388 21.6708C12.4632 21.6708 12.3856 21.6582 12.3058 21.633C12.226 21.6078 12.1483 21.5732 12.0727 21.5291C11.9992 21.4829 11.9278 21.4283 11.8585 21.3653C11.7913 21.3002 11.7304 21.2288 11.6759 21.1511C11.4428 21.17 11.2265 21.2246 11.0271 21.3149C10.8297 21.4031 10.6586 21.5186 10.5137 21.6614C10.3709 21.802 10.2586 21.9648 10.1767 22.1495C10.0948 22.3322 10.0538 22.5254 10.0538 22.7291C10.0538 22.8949 10.0811 23.0451 10.1357 23.1794C10.1924 23.3117 10.2754 23.4251 10.3845 23.5196C10.4958 23.6141 10.6334 23.6865 10.7971 23.7369C10.963 23.7873 11.1541 23.8125 11.3704 23.8125C11.6097 23.8125 11.8365 23.7758 12.0507 23.7023C12.2669 23.6309 12.4664 23.5395 12.6491 23.4283C12.8317 23.317 12.9976 23.1952 13.1467 23.0629C13.2958 22.9285 13.4249 22.8015 13.5341 22.6818C13.6454 22.5621 13.7346 22.4571 13.8018 22.3669C13.8177 22.345 13.8323 22.3249 13.8456 22.3067C13.8583 22.2881 13.8712 22.2705 13.8844 22.2539C13.9043 22.2268 13.9196 22.2064 13.9302 22.1924C13.9732 22.1204 14.0238 22.0463 14.0821 21.97C14.1976 21.8167 14.3173 21.6876 14.4411 21.5826C14.5671 21.4776 14.69 21.3937 14.8096 21.3307C14.9314 21.2656 15.0469 21.2194 15.1561 21.1921C15.2653 21.1648 15.3629 21.1511 15.449 21.1511C15.6422 21.1511 15.7881 21.1837 15.8868 21.2488C15.9855 21.3118 16.0453 21.4094 16.0663 21.5417C16.1083 21.4892 16.1524 21.4367 16.1986 21.3842L16.3403 21.2236L16.4411 21.2677C16.4138 21.3223 16.375 21.3937 16.3246 21.4818C16.2763 21.57 16.2238 21.6677 16.1671 21.7747C16.1104 21.8797 16.0527 21.99 15.9939 22.1055C15.9372 22.2209 15.8847 22.3343 15.8364 22.4456C15.7902 22.5548 15.7514 22.6587 15.7199 22.7574C15.6905 22.854 15.6758 22.9359 15.6758 23.0031C15.6758 23.0703 15.6884 23.1144 15.7136 23.1353C15.7409 23.1542 15.7755 23.1637 15.8175 23.1637C15.8784 23.1637 15.9403 23.1458 16.0033 23.1102C16.0684 23.0745 16.1314 23.0283 16.1923 22.9716C16.2553 22.9149 16.3162 22.8508 16.375 22.7795C16.4338 22.7081 16.4883 22.6367 16.5387 22.5653C16.5912 22.4918 16.6385 22.4225 16.6805 22.3574C16.7225 22.2902 16.7582 22.2335 16.7875 22.1873L16.795 22.1931L16.8001 22.1779C16.8484 22.0372 16.9135 21.907 16.9954 21.7873C17.0773 21.6656 17.1707 21.5564 17.2757 21.4598C17.3828 21.3611 17.4941 21.2782 17.6096 21.211C17.7251 21.1417 17.8405 21.0882 17.956 21.0504C18.0736 21.0126 18.1838 20.9937 18.2867 20.9937C18.4232 20.9937 18.5303 21.0105 18.608 21.0441C18.6857 21.0777 18.7445 21.1112 18.7844 21.1448C18.8137 21.0861 18.8536 21.0115 18.904 20.9212C18.9544 20.8288 19.0132 20.727 19.0804 20.6157C19.1476 20.5023 19.2221 20.3827 19.304 20.2567C19.3859 20.1286 19.4731 20.0005 19.5654 19.8724C19.6578 19.7423 19.7544 19.6142 19.8552 19.4882C19.9581 19.3622 20.062 19.2446 20.167 19.1354L20.3024 19.2236C20.2793 19.2572 20.2415 19.3129 20.189 19.3906C20.1366 19.4682 20.0757 19.5606 20.0064 19.6677C19.9371 19.7748 19.8615 19.8934 19.7796 20.0236C19.6998 20.1538 19.619 20.2882 19.5371 20.4267C19.4573 20.5653 19.3786 20.706 19.3009 20.8488C19.2253 20.9895 19.1581 21.1249 19.0993 21.2551C19.0069 21.4566 18.9303 21.6372 18.8694 21.7968C18.8106 21.9543 18.7634 22.095 18.7277 22.2188C18.6941 22.3427 18.6699 22.4508 18.6552 22.5432C18.6426 22.6335 18.6363 22.7112 18.6363 22.7763C18.6363 22.896 18.6542 22.9789 18.6899 23.0251C18.7277 23.0713 18.7781 23.0944 18.841 23.0944C18.9061 23.0944 18.9681 23.0776 19.0269 23.044C19.0878 23.0104 19.1455 22.9674 19.2001 22.9149C19.2568 22.8624 19.3093 22.8025 19.3576 22.7354C19.408 22.6682 19.4542 22.601 19.4961 22.5338C19.5402 22.4666 19.5801 22.4026 19.6158 22.3417C19.6515 22.2808 19.683 22.2293 19.7103 22.1873L19.728 22.2011C19.7736 22.0951 19.8286 21.995 19.893 21.9007C19.9791 21.7747 20.0778 21.6603 20.189 21.5574C20.3003 21.4524 20.4127 21.3632 20.526 21.2897C20.6415 21.2162 20.7539 21.1595 20.863 21.1196C20.9722 21.0777 21.0688 21.0567 21.1528 21.0567C21.2074 21.0567 21.263 21.0651 21.3197 21.0819C21.3764 21.0986 21.4268 21.1249 21.4709 21.1606C21.5171 21.1963 21.5538 21.2435 21.5811 21.3023C21.6105 21.3611 21.6252 21.4315 21.6252 21.5133C21.6252 21.6246 21.599 21.7296 21.5465 21.8283C21.4961 21.9249 21.4279 22.0152 21.3418 22.0992C21.2557 22.181 21.1559 22.2556 21.0426 22.3228C20.9292 22.3879 20.8106 22.4435 20.6867 22.4897C20.5628 22.5359 20.4379 22.5726 20.3119 22.5999C20.1859 22.6272 20.0662 22.6419 19.9528 22.644C19.9486 22.6692 19.9455 22.6944 19.9434 22.7196C19.9413 22.7448 19.9402 22.77 19.9402 22.7952C19.9402 22.8708 19.9507 22.9432 19.9717 23.0125C19.9948 23.0797 20.0274 23.1395 20.0694 23.192C20.1135 23.2424 20.167 23.2823 20.23 23.3117C20.2951 23.3411 20.3686 23.3558 20.4505 23.3558C20.7255 23.3558 20.9911 23.2624 21.2473 23.0755C21.5034 22.8886 21.7586 22.5926 22.0126 22.1873C22.0147 22.1852 22.041 22.1401 22.0914 22.0519C22.1418 21.9637 22.2079 21.8524 22.2898 21.7181C22.3738 21.5816 22.4683 21.4315 22.5732 21.2677C22.6782 21.1018 22.7864 20.9412 22.8976 20.7858L23.0236 20.8897C23.0131 20.9086 22.9995 20.9296 22.9827 20.9527C22.9659 20.9737 22.9491 20.9989 22.9323 21.0283C22.9176 21.0556 22.9039 21.0882 22.8913 21.1259C22.8808 21.1637 22.8756 21.2089 22.8756 21.2614C22.8756 21.3055 22.8861 21.3653 22.9071 21.4409C22.9302 21.5165 22.9543 21.6036 22.9795 21.7023C23.0047 21.7989 23.0278 21.9049 23.0488 22.0204C23.0719 22.1338 23.0835 22.2514 23.0835 22.3732C23.0835 22.5516 23.0593 22.7091 23.011 22.8456C22.9627 22.9821 22.8987 23.0986 22.8189 23.1952C22.9827 23.107 23.1433 22.981 23.3008 22.8172C23.4583 22.6514 23.7177 22.3681 23.8773 22.114C23.6887 22.4917 23.4117 22.8706 23.2371 23.0452C23.1107 23.1716 22.9165 23.3285 22.7591 23.3999C22.6016 23.4734 22.4347 23.5101 22.2583 23.5101C22.1008 23.5101 21.9685 23.4723 21.8614 23.3968C21.7523 23.3233 21.6851 23.212 21.6599 23.0629L21.7733 23.0409C21.7733 23.0535 21.7796 23.0745 21.7922 23.1039C21.8027 23.1311 21.8205 23.1584 21.8457 23.1857C21.8709 23.213 21.9055 23.2372 21.9496 23.2582C21.9916 23.2792 22.0441 23.2897 22.1071 23.2897C22.1911 23.2897 22.2656 23.2708 22.3307 23.233C22.3958 23.1931 22.4525 23.1416 22.5008 23.0787C22.5491 23.0157 22.59 22.9443 22.6236 22.8645C22.6572 22.7826 22.6835 22.6986 22.7024 22.6125C22.7234 22.5264 22.7381 22.4425 22.7465 22.3606C22.7549 22.2787 22.7591 22.2041 22.7591 22.1369C22.7591 22.0698 22.7559 21.9952 22.7496 21.9133C22.7454 21.8314 22.7402 21.7538 22.7339 21.6803C22.7276 21.6047 22.7213 21.5396 22.715 21.485C22.7108 21.4283 22.7087 21.3916 22.7087 21.3748V21.3685C22.6814 21.3979 22.6488 21.4409 22.611 21.4976C22.5732 21.5543 22.5323 21.6162 22.4882 21.6834C22.4462 21.7506 22.4032 21.8188 22.3591 21.8881C22.3171 21.9574 22.2782 22.0204 22.2425 22.0771C22.2089 22.1338 22.1806 22.181 22.1575 22.2188C22.1365 22.2545 22.126 22.2734 22.126 22.2755C21.9874 22.5065 21.8404 22.7081 21.6977 22.8676C21.5549 23.0251 21.4121 23.1532 21.2693 23.2519C21.1287 23.3506 20.9901 23.422 20.8536 23.466C20.7171 23.5101 20.5869 23.5322 20.4631 23.5322C20.3728 23.5322 20.2772 23.5196 20.1764 23.4944C20.0757 23.4692 19.9822 23.4272 19.8961 23.3684C19.8121 23.3096 19.7429 23.2309 19.6883 23.1322C19.6316 23.0335 19.6032 22.9107 19.6032 22.7637C19.6032 22.7239 19.605 22.6846 19.6085 22.6456C19.5669 22.7135 19.52 22.7822 19.4678 22.8519C19.4111 22.9254 19.3481 22.9926 19.2788 23.0535C19.2116 23.1144 19.136 23.1647 19.0521 23.2046C18.9702 23.2424 18.8809 23.2613 18.7844 23.2613C18.7382 23.2613 18.6888 23.255 18.6363 23.2424C18.5859 23.2298 18.5387 23.2078 18.4946 23.1763C18.4505 23.1448 18.4117 23.1018 18.3781 23.0472C18.3445 22.9905 18.3224 22.9191 18.3119 22.833C18.1544 23.0031 18.0012 23.1322 17.8521 23.2204C17.703 23.3065 17.5623 23.3495 17.4301 23.3495C17.3629 23.3495 17.2883 23.338 17.2064 23.3149C17.1266 23.2918 17.0511 23.2519 16.9797 23.1952C16.9083 23.1385 16.8484 23.064 16.8001 22.9716C16.7519 22.8771 16.7277 22.7606 16.7277 22.622C16.7277 22.6029 16.7281 22.5839 16.7288 22.565C16.6932 22.6192 16.655 22.6739 16.6143 22.7291C16.5576 22.8067 16.4957 22.8823 16.4285 22.9558C16.3613 23.0293 16.2899 23.0944 16.2143 23.1511C16.1408 23.2078 16.0632 23.2529 15.9813 23.2865C15.8994 23.3201 15.8154 23.3369 15.7293 23.3369C15.6033 23.3369 15.5109 23.2991 15.4521 23.2235C15.3934 23.1479 15.364 23.0503 15.364 22.9306V22.8771C15.3661 22.8477 15.3692 22.8246 15.3734 22.8078C15.2684 22.9401 15.1676 23.0493 15.0711 23.1353C14.9766 23.2214 14.8842 23.2897 14.7939 23.3401C14.7057 23.3905 14.6196 23.4251 14.5356 23.444C14.4537 23.465 14.375 23.4755 14.2994 23.4755C14.2196 23.4755 14.144 23.4618 14.0727 23.4346C14.0034 23.4094 13.9425 23.3716 13.89 23.3212C13.8354 23.2708 13.7934 23.2088 13.764 23.1353C13.7325 23.0619 13.7168 22.9768 13.7168 22.8802C13.7168 22.8242 13.7227 22.7644 13.7347 22.701C13.7345 22.7007 13.7343 22.7005 13.7341 22.7002C13.6794 22.7663 13.619 22.8347 13.553 22.9054C13.4375 23.0314 13.3031 23.1584 13.1498 23.2865C12.9987 23.4125 12.8286 23.5269 12.6396 23.6298C12.4527 23.7327 12.248 23.8156 12.0255 23.8786C11.8029 23.9437 11.5625 23.9763 11.3042 23.9763C11.0208 23.9763 10.7761 23.9406 10.5704 23.8692C10.3646 23.7978 10.1935 23.7012 10.057 23.5794C9.92262 23.4597 9.82288 23.3212 9.75779 23.1637C9.6927 23.0041 9.66016 22.8361 9.66016 22.6598C9.66016 22.5359 9.6759 22.4099 9.7074 22.2818C9.73889 22.1537 9.78719 22.0288 9.85228 21.907C9.91737 21.7852 10.0014 21.6698 10.1042 21.5606C10.2071 21.4514 10.3289 21.3548 10.4696 21.2708C10.6103 21.1868 10.7719 21.1186 10.9546 21.0661C11.1373 21.0136 11.342 20.9821 11.5688 20.9716C11.531 20.896 11.5016 20.8173 11.4806 20.7354C11.4596 20.6514 11.4491 20.5653 11.4491 20.4771C11.4491 20.3155 11.4764 20.1632 11.531 20.0205C11.5856 19.8756 11.6601 19.7433 11.7546 19.6236C11.8512 19.5018 11.9635 19.3937 12.0916 19.2992C12.2218 19.2047 12.3604 19.1249 12.5073 19.0599C12.6543 18.9927 12.8065 18.9423 12.964 18.9087C13.1236 18.873 13.2811 18.8551 13.4364 18.8551C13.596 18.8551 13.7378 18.8719 13.8616 18.9055C13.9876 18.937 14.0936 18.9822 14.1797 19.041C14.2658 19.0997 14.332 19.1711 14.3782 19.2551C14.4243 19.337 14.4474 19.4273 14.4474 19.526C14.4474 19.6352 14.4243 19.7381 14.3782 19.8346C14.3341 19.9312 14.2732 20.0194 14.1955 20.0992C14.1199 20.1769 14.0307 20.2472 13.9278 20.3102C13.827 20.3711 13.7189 20.4226 13.6034 20.4645C13.49 20.5065 13.3724 20.5391 13.2506 20.5622C13.1288 20.5832 13.0113 20.5937 12.8979 20.5937C12.8601 20.5937 12.8296 20.5926 12.8065 20.5905C12.7834 20.5884 12.7698 20.5874 12.7656 20.5874L12.7845 20.4236ZM12.7026 21.4063C12.7026 21.3559 12.6795 21.3149 12.6333 21.2834C12.5892 21.2498 12.5304 21.2236 12.4569 21.2047C12.3856 21.1858 12.3037 21.1721 12.2113 21.1637C12.121 21.1532 12.0286 21.1469 11.9341 21.1448C11.974 21.2036 12.0181 21.2561 12.0664 21.3023C12.1168 21.3464 12.1682 21.3842 12.2207 21.4157C12.2732 21.4472 12.3257 21.4713 12.3782 21.4881C12.4328 21.5049 12.4842 21.5133 12.5325 21.5133C12.5892 21.5133 12.6312 21.5028 12.6585 21.4818C12.6879 21.4608 12.7026 21.4357 12.7026 21.4063ZM15.4742 22.4645C15.5015 22.4204 15.5351 22.3648 15.575 22.2976C15.6149 22.2283 15.6569 22.1579 15.701 22.0866C15.7451 22.0131 15.7881 21.9427 15.8301 21.8755C15.8721 21.8083 15.9088 21.7517 15.9403 21.7055C15.9403 21.6866 15.9372 21.6561 15.9309 21.6141C15.9267 21.5721 15.913 21.5301 15.8899 21.4881C15.8668 21.444 15.8301 21.4063 15.7797 21.3748C15.7293 21.3433 15.659 21.3275 15.5687 21.3275C15.5036 21.3275 15.4301 21.338 15.3482 21.359C15.2684 21.3779 15.1823 21.4115 15.09 21.4598C14.9997 21.506 14.9062 21.5679 14.8096 21.6456C14.7131 21.7233 14.6165 21.8199 14.5199 21.9354C14.375 22.1097 14.2627 22.285 14.1829 22.4613C14.1052 22.6356 14.0664 22.7931 14.0664 22.9338C14.0664 23.0535 14.0936 23.1458 14.1482 23.2109C14.2028 23.276 14.2805 23.3086 14.3813 23.3086C14.4968 23.3086 14.6049 23.2834 14.7057 23.233C14.8065 23.1805 14.901 23.1133 14.9892 23.0314C15.0774 22.9495 15.1613 22.8592 15.2411 22.7606C15.3209 22.6598 15.3986 22.5611 15.4742 22.4645ZM18.4159 22.0488C18.355 22.2587 18.3193 22.4414 18.3088 22.5968C18.2185 22.7039 18.1324 22.7952 18.0505 22.8708C17.9686 22.9443 17.8899 23.0052 17.8143 23.0535C17.7408 23.0997 17.6726 23.1332 17.6096 23.1542C17.5466 23.1752 17.4888 23.1857 17.4364 23.1857C17.3251 23.1857 17.2358 23.1416 17.1686 23.0535C17.1036 22.9653 17.071 22.8424 17.071 22.685C17.071 22.5674 17.0889 22.4487 17.1245 22.3291C17.1623 22.2073 17.2127 22.0908 17.2757 21.9795C17.3408 21.8682 17.4164 21.7643 17.5025 21.6677C17.5886 21.569 17.6799 21.4839 17.7765 21.4126C17.8752 21.3412 17.977 21.2845 18.082 21.2425C18.1891 21.2005 18.2941 21.1795 18.397 21.1795C18.4641 21.1795 18.524 21.1921 18.5765 21.2173C18.6311 21.2404 18.6731 21.274 18.7025 21.3181C18.5744 21.5931 18.4788 21.8367 18.4159 22.0488ZM19.978 22.5086C20.1187 22.4939 20.251 22.4645 20.3749 22.4204C20.4987 22.3763 20.6121 22.3228 20.715 22.2598C20.8179 22.1947 20.9092 22.1243 20.989 22.0488C21.0709 21.9732 21.1392 21.8965 21.1937 21.8188C21.2483 21.7412 21.2903 21.6666 21.3197 21.5952C21.3491 21.5238 21.3638 21.4598 21.3638 21.4031C21.3638 21.3464 21.3481 21.3013 21.3166 21.2677C21.2872 21.2341 21.2515 21.2173 21.2095 21.2173C21.1171 21.2173 21.0132 21.2509 20.8977 21.3181C20.7822 21.3832 20.6667 21.4745 20.5512 21.5921C20.4358 21.7076 20.3266 21.844 20.2237 22.0015C20.1229 22.159 20.041 22.328 19.978 22.5086Z" fill="#353535"/>
<path d="M12.4536 19.2243C14.6038 17.9902 17.5748 17.8076 19.4952 17.9801C21.6106 18.1702 23.627 19.1128 24.7327 19.9026C25.9548 20.7756 27.3515 22.112 29.0973 22.5415C30.8432 22.9709 32.589 23.0411 35.1236 22.7785C35.2298 22.7675 35.5565 23.0687 35.6151 23.1595C35.9552 23.6867 35.0332 23.625 33.6365 23.6832C32.2398 23.7414 30.6686 23.589 29.0973 23.0652C27.0605 22.3863 25.9218 21.2793 24.4999 20.2518C23.0781 19.2243 21.4156 18.6223 19.2624 18.3293C17.2666 18.0577 14.5788 18.3674 12.4536 19.2243Z" fill="#353535"/>
<path fill-rule="evenodd" clip-rule="evenodd" d="M14.637 25.1402C14.7019 25.1402 14.7557 25.1559 14.7983 25.1875C14.8428 25.219 14.8651 25.2765 14.8651 25.3599C14.8651 25.4174 14.853 25.486 14.8289 25.5658C14.8067 25.6455 14.7751 25.7326 14.7343 25.8272C14.6954 25.9199 14.649 26.0182 14.5953 26.1221C14.5415 26.2241 14.4831 26.3261 14.42 26.428C14.3588 26.53 14.2939 26.6292 14.2253 26.7257C14.1586 26.8221 14.0918 26.9111 14.025 26.9927C13.8915 27.1578 13.7756 27.2968 13.6773 27.41C13.5809 27.5231 13.4975 27.6195 13.427 27.6992C13.3565 27.7771 13.2972 27.8411 13.249 27.8912C13.2008 27.9394 13.1581 27.9811 13.121 28.0163C13.0839 28.0516 13.0496 28.084 13.0181 28.1137C12.9866 28.1415 12.9541 28.173 12.9207 28.2083C12.9059 28.2787 12.8985 28.3464 12.8985 28.4113C12.9003 28.4744 12.9013 28.5328 12.9013 28.5866C12.9013 28.7479 12.9272 28.8675 12.9792 28.9454C13.0311 29.0233 13.1043 29.0622 13.1989 29.0622C13.262 29.0622 13.325 29.0465 13.3881 29.0149C13.453 28.9816 13.5169 28.9389 13.58 28.887C13.643 28.8351 13.7042 28.7766 13.7636 28.7117C13.8229 28.645 13.8785 28.5782 13.9305 28.5115C13.9842 28.4429 14.0325 28.377 14.0751 28.314L14.1864 28.1499L14.2 28.1602C14.2401 28.0672 14.2884 27.9794 14.3449 27.8967C14.421 27.7855 14.5081 27.6844 14.6064 27.5935C14.7047 27.5008 14.8039 27.422 14.904 27.3571C15.006 27.2922 15.1052 27.2421 15.2017 27.2069C15.2981 27.1698 15.3834 27.1513 15.4576 27.1513C15.5058 27.1513 15.5549 27.1587 15.605 27.1735C15.6551 27.1884 15.6996 27.2115 15.7385 27.2431C15.7793 27.2746 15.8118 27.3163 15.8359 27.3682C15.8618 27.4202 15.8748 27.4823 15.8748 27.5546C15.8748 27.6529 15.8516 27.7456 15.8053 27.8328C15.7608 27.9181 15.7005 27.9978 15.6245 28.072C15.5484 28.1443 15.4603 28.2101 15.3602 28.2695C15.2601 28.327 15.1553 28.3761 15.0459 28.4169C14.9365 28.4577 14.8261 28.4901 14.7149 28.5142C14.6036 28.5384 14.4979 28.5513 14.3978 28.5532C14.3941 28.5754 14.3913 28.5977 14.3894 28.6199C14.3876 28.6422 14.3866 28.6645 14.3866 28.6867C14.3866 28.7535 14.3959 28.8174 14.4145 28.8786C14.4349 28.938 14.4636 28.9908 14.5007 29.0372C14.5396 29.0817 14.5869 29.1169 14.6426 29.1429C14.7 29.1688 14.7649 29.1818 14.8373 29.1818C15.0802 29.1818 15.3148 29.0993 15.541 28.9343C15.7672 28.7692 15.9926 28.5078 16.2169 28.1499L16.2172 28.1501L16.2225 28.1332C16.2652 28.0034 16.3208 27.8837 16.3894 27.7743C16.4599 27.6649 16.5405 27.5666 16.6314 27.4795C16.7223 27.3905 16.8168 27.3154 16.9151 27.2542C17.0153 27.193 17.1154 27.1466 17.2155 27.1151C17.3175 27.0817 17.413 27.065 17.502 27.065C17.5929 27.065 17.6671 27.078 17.7246 27.104C17.782 27.1281 17.8275 27.1578 17.8609 27.193C17.8942 27.2282 17.9165 27.2653 17.9276 27.3043C17.9406 27.3432 17.9471 27.3766 17.9471 27.4044C17.9471 27.4489 17.9406 27.4962 17.9276 27.5462C17.9146 27.5963 17.8961 27.6427 17.872 27.6853C17.8497 27.7261 17.821 27.7604 17.7858 27.7882C17.7524 27.8161 17.7153 27.83 17.6745 27.83C17.6337 27.83 17.5985 27.817 17.5688 27.791C17.5391 27.7632 17.5243 27.7289 17.5243 27.6881C17.5243 27.6863 17.5252 27.6751 17.5271 27.6547C17.5308 27.6343 17.5401 27.613 17.5549 27.5908C17.5697 27.5666 17.592 27.5453 17.6216 27.5268C17.6532 27.5082 17.6967 27.499 17.7524 27.499H17.7858C17.7969 27.4693 17.8024 27.4378 17.8024 27.4044C17.8024 27.345 17.7783 27.2987 17.7301 27.2653C17.6838 27.2301 17.6096 27.2125 17.5076 27.2125C17.4242 27.2125 17.3398 27.231 17.2545 27.2681C17.171 27.3033 17.0904 27.3525 17.0125 27.4155C16.9346 27.4786 16.8613 27.5537 16.7927 27.6408C16.726 27.728 16.6676 27.8226 16.6175 27.9245C16.5693 28.0265 16.5303 28.135 16.5007 28.25C16.4728 28.3631 16.4589 28.4772 16.4589 28.5921C16.4589 28.6848 16.4691 28.7637 16.4895 28.8286C16.5099 28.8935 16.5387 28.9463 16.5758 28.9871C16.6129 29.0279 16.6574 29.0576 16.7093 29.0761C16.7612 29.0928 16.8196 29.1012 16.8845 29.1012C17.0125 29.1012 17.1367 29.0724 17.2573 29.0149C17.3778 28.9574 17.4918 28.8833 17.5994 28.7924C17.7088 28.6997 17.8089 28.5968 17.8998 28.4836C17.9925 28.3705 18.0741 28.2593 18.1446 28.1499L18.1622 28.1632C18.1705 28.1337 18.1795 28.1033 18.1891 28.072C18.2317 27.931 18.2883 27.7734 18.3588 27.5991C18.4311 27.4248 18.522 27.2375 18.6314 27.0372H18.1696L18.2253 26.8926H18.712C18.7306 26.861 18.763 26.8063 18.8094 26.7285C18.8576 26.6506 18.9132 26.5643 18.9763 26.4698C19.0412 26.3752 19.1107 26.2806 19.1849 26.186C19.2609 26.0896 19.3351 26.008 19.4074 25.9413L19.5326 26.0164C19.4529 26.148 19.3713 26.288 19.2878 26.4364C19.2044 26.5829 19.1219 26.7349 19.0403 26.8926H19.9471L19.8914 27.0372H18.9652C18.8817 27.2041 18.8029 27.3701 18.7287 27.5351C18.6564 27.7002 18.5924 27.8578 18.5368 28.008C18.4812 28.1582 18.4376 28.2991 18.4061 28.4308C18.3745 28.5606 18.3588 28.6737 18.3588 28.7702C18.3588 28.8907 18.3866 28.9778 18.4422 29.0316C18.4978 29.0835 18.5665 29.1095 18.6481 29.1095C18.7204 29.1095 18.7945 29.0882 18.8706 29.0455C18.9466 29.001 19.0208 28.9454 19.0931 28.8786C19.1673 28.8119 19.2368 28.7386 19.3017 28.6589C19.3685 28.5791 19.4269 28.504 19.477 28.4336C19.5289 28.3631 19.5715 28.3019 19.6049 28.25C19.6383 28.1962 19.6587 28.1628 19.6661 28.1499L20.2614 27.218L20.342 27.2597C20.3383 27.2709 20.3318 27.2885 20.3226 27.3126C20.3152 27.3367 20.3114 27.3627 20.3114 27.3905C20.3114 27.4109 20.3142 27.4313 20.3198 27.4517C20.3272 27.4702 20.3411 27.4878 20.3615 27.5045C20.4357 27.5713 20.4941 27.6232 20.5368 27.6603C20.5794 27.6955 20.61 27.7243 20.6286 27.7465C20.6489 27.7669 20.661 27.7845 20.6647 27.7994C20.6703 27.8124 20.6731 27.83 20.6731 27.8522C20.6731 27.8745 20.6693 27.9014 20.6619 27.9329C20.6545 27.9644 20.6415 28.0024 20.623 28.0469C20.6063 28.0914 20.5822 28.1443 20.5507 28.2055C20.521 28.2648 20.483 28.3344 20.4366 28.4141C20.4088 28.4623 20.381 28.5115 20.3532 28.5615C20.3272 28.6097 20.3031 28.6589 20.2809 28.709C20.2605 28.759 20.2438 28.8091 20.2308 28.8592C20.2178 28.9092 20.2113 28.9574 20.2113 29.0038C20.2113 29.039 20.2159 29.0678 20.2252 29.09C20.2363 29.1104 20.2503 29.1262 20.2669 29.1373C20.2836 29.1484 20.3012 29.1559 20.3198 29.1596C20.3402 29.1633 20.3597 29.1651 20.3782 29.1651C20.4394 29.1651 20.4997 29.1475 20.559 29.1123C20.6202 29.0752 20.6795 29.0279 20.737 28.9704C20.7964 28.9129 20.8529 28.848 20.9067 28.7757C20.9623 28.7015 21.0152 28.6264 21.0653 28.5504C21.1153 28.4744 21.1617 28.4021 21.2043 28.3334C21.2352 28.2824 21.2637 28.2362 21.2897 28.1949C21.3224 28.135 21.358 28.0755 21.3963 28.0163C21.4834 27.8828 21.5771 27.7549 21.6772 27.6325C21.7792 27.5101 21.8729 27.3988 21.9582 27.2987L22.0472 27.3376C22.0231 27.3858 21.9888 27.4498 21.9442 27.5296C21.9016 27.6074 21.8552 27.6937 21.8052 27.7882C21.7551 27.881 21.7041 27.9793 21.6522 28.0831C21.6003 28.1851 21.553 28.2852 21.5103 28.3835C21.4695 28.4799 21.4361 28.5708 21.4102 28.6561C21.3842 28.7414 21.3712 28.8137 21.3712 28.8731C21.3712 28.9268 21.3824 28.9639 21.4046 28.9843C21.4269 29.0029 21.4584 29.0122 21.4992 29.0122C21.5752 29.0122 21.6494 28.9871 21.7217 28.937C21.794 28.887 21.8654 28.8221 21.9359 28.7423C22.0082 28.6607 22.0787 28.568 22.1473 28.4642C22.2159 28.3603 22.2845 28.2556 22.3531 28.1499L22.3534 28.1501L22.3587 28.1332C22.4014 28.0034 22.457 27.8837 22.5256 27.7743C22.5961 27.6649 22.6767 27.5666 22.7676 27.4795C22.8585 27.3905 22.953 27.3154 23.0513 27.2542C23.1515 27.193 23.2516 27.1466 23.3517 27.1151C23.4537 27.0817 23.5492 27.065 23.6382 27.065C23.7291 27.065 23.8033 27.078 23.8608 27.104C23.9183 27.1281 23.9637 27.1578 23.9971 27.193C24.0304 27.2282 24.0527 27.2653 24.0638 27.3043C24.0768 27.3432 24.0833 27.3766 24.0833 27.4044C24.0833 27.4489 24.0768 27.4962 24.0638 27.5462C24.0508 27.5963 24.0323 27.6427 24.0082 27.6853C23.9859 27.7261 23.9572 27.7604 23.922 27.7882C23.8886 27.8161 23.8515 27.83 23.8107 27.83C23.7699 27.83 23.7347 27.817 23.705 27.791C23.6753 27.7632 23.6605 27.7289 23.6605 27.6881C23.6605 27.6863 23.6614 27.6751 23.6633 27.6547C23.667 27.6343 23.6763 27.613 23.6911 27.5908C23.7059 27.5666 23.7282 27.5453 23.7578 27.5268C23.7894 27.5082 23.833 27.499 23.8886 27.499H23.922C23.9331 27.4693 23.9387 27.4378 23.9387 27.4044C23.9387 27.345 23.9145 27.2987 23.8663 27.2653C23.82 27.2301 23.7458 27.2125 23.6438 27.2125C23.5604 27.2125 23.476 27.231 23.3907 27.2681C23.3072 27.3033 23.2266 27.3525 23.1487 27.4155C23.0708 27.4786 22.9975 27.5537 22.9289 27.6408C22.8622 27.728 22.8038 27.8226 22.7537 27.9245C22.7055 28.0265 22.6665 28.135 22.6369 28.25C22.609 28.3631 22.5951 28.4772 22.5951 28.5921C22.5951 28.6848 22.6053 28.7637 22.6257 28.8286C22.6461 28.8935 22.6749 28.9463 22.712 28.9871C22.7491 29.0279 22.7936 29.0576 22.8455 29.0761C22.8974 29.0928 22.9558 29.1012 23.0207 29.1012C23.1487 29.1012 23.2729 29.0724 23.3935 29.0149C23.514 28.9574 23.628 28.8833 23.7356 28.7924C23.8067 28.7321 23.8911 28.6423 23.9709 28.5575L23.9709 28.5575C24.0138 28.5118 24.0553 28.4676 24.0927 28.4302C24.1219 28.4011 24.1611 28.3563 24.2071 28.3036L24.2072 28.3036C24.2956 28.2025 24.4093 28.0725 24.5254 27.9692C26.0602 26.2892 29.7629 25.9198 31.2504 25.8114C32.8476 25.695 34.5093 25.8114 35.6548 26.1153C36.0093 26.2093 35.8452 26.7468 35.4911 26.6945C32.4634 26.2471 26.3407 25.8886 24.1967 28.506C24.1532 28.5673 24.109 28.6253 24.0634 28.6798C24.0536 28.6935 24.0439 28.7073 24.0342 28.7212C24.0363 28.7164 24.0383 28.7117 24.0403 28.707C23.8555 28.9211 23.6449 29.0806 23.3545 29.1818C23.2321 29.2245 23.1125 29.2458 22.9957 29.2458C22.903 29.2458 22.814 29.2319 22.7287 29.2041C22.6452 29.1763 22.571 29.1345 22.5061 29.0789C22.4431 29.0214 22.3921 28.9482 22.3531 28.8592C22.3161 28.7702 22.2975 28.6645 22.2975 28.5421C22.2975 28.5247 22.2978 28.5075 22.2984 28.4904L22.2697 28.5365C22.2029 28.6459 22.1278 28.7479 22.0444 28.8425C21.9609 28.9352 21.8691 29.0122 21.769 29.0733C21.6689 29.1345 21.5595 29.1651 21.4408 29.1651C21.3295 29.1651 21.2442 29.1318 21.1849 29.065C21.1255 28.9982 21.0959 28.912 21.0959 28.8063C21.0959 28.7914 21.0963 28.7765 21.0971 28.7614C21.0735 28.7955 21.049 28.83 21.0235 28.8647C20.9642 28.9482 20.8984 29.0233 20.826 29.09C20.7556 29.1568 20.6786 29.2115 20.5952 29.2541C20.5117 29.2968 20.4227 29.3181 20.3281 29.3181C20.2762 29.3181 20.2271 29.3098 20.1807 29.2931C20.1344 29.2783 20.0936 29.2541 20.0583 29.2208C20.0231 29.1874 19.9953 29.1466 19.9749 29.0984C19.9545 29.0483 19.9443 28.9899 19.9443 28.9231C19.9443 28.8323 19.9619 28.7377 19.9971 28.6394C20.0342 28.5393 20.0769 28.4429 20.1251 28.3501C20.1733 28.2574 20.2215 28.173 20.2697 28.097C20.3179 28.0191 20.3532 27.957 20.3754 27.9106C20.3977 27.8643 20.4088 27.8244 20.4088 27.791C20.4088 27.7669 20.4005 27.7456 20.3838 27.7271C20.3689 27.7085 20.3495 27.6909 20.3254 27.6742C20.3031 27.6557 20.279 27.6371 20.253 27.6186C20.2289 27.5982 20.2085 27.5741 20.1918 27.5462C20.1455 27.6204 20.0982 27.6955 20.05 27.7716C20.0073 27.8365 19.961 27.9097 19.9109 27.9913C19.8611 28.0705 19.8132 28.1489 19.7671 28.2263L19.769 28.2277C19.7041 28.3353 19.6309 28.4493 19.5493 28.5699C19.4677 28.6904 19.3768 28.8026 19.2767 28.9065C19.1784 29.0084 19.0709 29.0937 18.954 29.1624C18.8372 29.2291 18.7111 29.2625 18.5757 29.2625C18.4923 29.2625 18.419 29.2477 18.356 29.218C18.2948 29.1883 18.2429 29.1475 18.2002 29.0956C18.1576 29.0418 18.126 28.9788 18.1056 28.9065C18.0834 28.8341 18.0723 28.7553 18.0723 28.67C18.0723 28.6196 18.0799 28.5503 18.0951 28.4619C18.0409 28.5375 17.9851 28.6078 17.9276 28.6728C17.8145 28.7989 17.6986 28.9046 17.5799 28.9899C17.4612 29.0752 17.3407 29.1392 17.2183 29.1818C17.0959 29.2245 16.9763 29.2458 16.8595 29.2458C16.7668 29.2458 16.6778 29.2319 16.5925 29.2041C16.509 29.1763 16.4348 29.1345 16.3699 29.0789C16.3069 29.0214 16.2559 28.9482 16.2169 28.8592C16.1798 28.7702 16.1613 28.6645 16.1613 28.5421C16.1613 28.5156 16.162 28.4894 16.1634 28.4635C16.0892 28.5706 16.0143 28.6663 15.9388 28.7507C15.8127 28.8898 15.6866 29.0029 15.5605 29.09C15.4362 29.1772 15.3138 29.2402 15.1933 29.2792C15.0728 29.3181 14.9578 29.3376 14.8484 29.3376C14.7687 29.3376 14.6843 29.3265 14.5953 29.3042C14.5063 29.282 14.4237 29.2449 14.3477 29.193C14.2735 29.141 14.2123 29.0715 14.1641 28.9843C14.114 28.8972 14.089 28.7887 14.089 28.6589C14.089 28.6137 14.0916 28.5692 14.0966 28.5252C14.0504 28.5904 13.9969 28.66 13.936 28.734C13.8674 28.8156 13.7932 28.8916 13.7135 28.9621C13.6338 29.0325 13.5494 29.091 13.4604 29.1373C13.3732 29.1837 13.2842 29.2069 13.1933 29.2069C13.1173 29.2069 13.0441 29.193 12.9736 29.1651C12.905 29.1355 12.8438 29.09 12.79 29.0288C12.7381 28.9658 12.6954 28.8861 12.6621 28.7896C12.6305 28.6932 12.6148 28.5773 12.6148 28.4419C12.6148 28.4199 12.6151 28.3978 12.6158 28.3756L12.548 28.4697C12.4757 28.568 12.3876 28.6728 12.2838 28.7841C12.1818 28.8953 12.0631 29.0075 11.9277 29.1206C11.7942 29.2319 11.644 29.333 11.4771 29.4238C11.3121 29.5147 11.1312 29.5879 10.9347 29.6436C10.7381 29.7011 10.5258 29.7298 10.2977 29.7298C10.0474 29.7298 9.83132 29.6983 9.64958 29.6352C9.46785 29.5722 9.31672 29.4869 9.19618 29.3793C9.0775 29.2736 8.98942 29.1512 8.93193 29.0122C8.87445 28.8712 8.8457 28.7229 8.8457 28.5671C8.8457 28.4577 8.85961 28.3464 8.88743 28.2333C8.91524 28.1202 8.95789 28.0098 9.01538 27.9023C9.07287 27.7947 9.14704 27.6927 9.23791 27.5963C9.32877 27.4999 9.43633 27.4146 9.56057 27.3404C9.68482 27.2662 9.82761 27.206 9.98894 27.1596C10.1503 27.1132 10.3311 27.0854 10.5314 27.0762C10.498 27.0094 10.472 26.9399 10.4535 26.8675C10.4349 26.7934 10.4257 26.7173 10.4257 26.6394C10.4257 26.4967 10.4498 26.3622 10.498 26.2361C10.5462 26.1082 10.612 25.9913 10.6955 25.8856C10.7808 25.7781 10.88 25.6826 10.9931 25.5991C11.1081 25.5157 11.2305 25.4452 11.3603 25.3877C11.4901 25.3284 11.6245 25.2839 11.7636 25.2542C11.9045 25.2227 12.0436 25.2069 12.1808 25.2069C12.3218 25.2069 12.4469 25.2218 12.5564 25.2514C12.6676 25.2792 12.7613 25.3191 12.8373 25.371C12.9133 25.423 12.9717 25.486 13.0125 25.5602C13.0533 25.6325 13.0737 25.7122 13.0737 25.7994C13.0737 25.8958 13.0533 25.9867 13.0125 26.072C12.9736 26.1573 12.9198 26.2352 12.8512 26.3057C12.7844 26.3743 12.7056 26.4364 12.6148 26.492C12.5258 26.5458 12.4303 26.5912 12.3283 26.6283C12.2281 26.6654 12.1243 26.6942 12.0167 26.7146C11.9092 26.7331 11.8053 26.7424 11.7052 26.7424C11.6718 26.7424 11.6449 26.7414 11.6245 26.7396C11.6041 26.7377 11.5921 26.7368 11.5884 26.7368L11.605 26.5922C11.6106 26.594 11.618 26.5949 11.6273 26.5949H11.6941C11.8387 26.5949 11.9843 26.5755 12.1308 26.5365C12.2773 26.4976 12.4099 26.4438 12.5285 26.3752C12.6472 26.3047 12.7436 26.2213 12.8178 26.1249C12.892 26.0266 12.9291 25.919 12.9291 25.8022C12.9291 25.7391 12.9152 25.6835 12.8874 25.6353C12.8595 25.5852 12.8206 25.5435 12.7705 25.5101C12.7223 25.4767 12.663 25.4517 12.5925 25.435C12.5239 25.4165 12.4479 25.4072 12.3644 25.4072C12.2179 25.4072 12.0751 25.4257 11.9361 25.4628C11.797 25.4999 11.6662 25.5509 11.5439 25.6158C11.4215 25.6789 11.3093 25.754 11.2073 25.8411C11.1053 25.9264 11.0172 26.0201 10.943 26.1221C10.8689 26.2222 10.8114 26.327 10.7706 26.4364C10.7298 26.5458 10.7094 26.6552 10.7094 26.7646C10.7094 26.874 10.7298 26.9779 10.7706 27.0762C10.8985 27.0799 11.0181 27.0891 11.1294 27.104C11.2407 27.1188 11.3371 27.142 11.4187 27.1735C11.5003 27.2032 11.5643 27.2421 11.6106 27.2903C11.657 27.3386 11.6802 27.397 11.6802 27.4656C11.6802 27.5398 11.6523 27.5963 11.5967 27.6353C11.5411 27.6742 11.4715 27.6937 11.3881 27.6937C11.3213 27.6937 11.2527 27.6825 11.1822 27.6603C11.1118 27.638 11.0432 27.6074 10.9764 27.5685C10.9115 27.5277 10.8485 27.4795 10.7873 27.4239C10.7279 27.3664 10.6741 27.3033 10.6259 27.2347C10.4201 27.2514 10.2291 27.2996 10.0529 27.3794C9.8786 27.4572 9.72747 27.5592 9.59952 27.6853C9.47342 27.8096 9.37421 27.9533 9.30189 28.1165C9.22956 28.2778 9.1934 28.4484 9.1934 28.6283C9.1934 28.7748 9.21751 28.9074 9.26572 29.0261C9.31579 29.1429 9.38904 29.243 9.48547 29.3265C9.58375 29.4099 9.70522 29.4739 9.84986 29.5184C9.99636 29.5629 10.1651 29.5852 10.3561 29.5852C10.5675 29.5852 10.7678 29.5527 10.9569 29.4878C11.1479 29.4248 11.3241 29.3441 11.4854 29.2458C11.6468 29.1475 11.7933 29.04 11.9249 28.9231C12.0566 28.8045 12.1706 28.6923 12.2671 28.5866C12.3654 28.4809 12.4442 28.3881 12.5035 28.3084C12.5628 28.2268 12.6018 28.174 12.6203 28.1499L12.6223 28.1514L12.6433 28.0774C12.6515 28.0234 12.6614 27.9688 12.6732 27.9134C12.714 27.728 12.7687 27.5425 12.8373 27.3571C12.9059 27.1698 12.9866 26.9853 13.0793 26.8036C13.172 26.6218 13.2703 26.4494 13.3741 26.2862C13.4798 26.1211 13.5893 25.9691 13.7024 25.83C13.8173 25.6891 13.9295 25.5676 14.0389 25.4656C14.1502 25.3636 14.2568 25.2839 14.3588 25.2264C14.4608 25.1689 14.5535 25.1402 14.637 25.1402ZM12.9708 27.9607C13.1284 27.7975 13.2805 27.6325 13.427 27.4656C13.5753 27.2968 13.7135 27.1309 13.8415 26.9677C13.9713 26.8026 14.0899 26.6432 14.1975 26.4892C14.3051 26.3335 14.3968 26.187 14.4729 26.0497C14.5489 25.9125 14.6082 25.7874 14.6509 25.6742C14.6935 25.5611 14.7149 25.4638 14.7149 25.3822C14.7149 25.3673 14.7075 25.3479 14.6926 25.3238C14.6778 25.2978 14.6602 25.2848 14.6398 25.2848C14.5823 25.2848 14.5063 25.3228 14.4117 25.3989C14.3171 25.4749 14.2142 25.5787 14.1029 25.7104C13.9935 25.8402 13.8795 25.9923 13.7608 26.1666C13.644 26.3409 13.5336 26.5273 13.4298 26.7257C13.3259 26.9241 13.2332 27.129 13.1516 27.3404C13.07 27.5518 13.0098 27.7586 12.9708 27.9607ZM11.5327 27.46C11.5327 27.4155 11.5123 27.3794 11.4715 27.3515C11.4326 27.3219 11.3807 27.2987 11.3158 27.282C11.2527 27.2653 11.1804 27.2533 11.0988 27.2458C11.0191 27.2366 10.9375 27.231 10.854 27.2291C10.8893 27.2811 10.9282 27.3274 10.9708 27.3682C11.0153 27.4072 11.0608 27.4405 11.1071 27.4684C11.1535 27.4962 11.1999 27.5175 11.2462 27.5323C11.2944 27.5472 11.3399 27.5546 11.3825 27.5546C11.4326 27.5546 11.4697 27.5453 11.4938 27.5268C11.5197 27.5082 11.5327 27.486 11.5327 27.46ZM14.7705 28.3557C14.6611 28.3946 14.5443 28.4206 14.42 28.4336C14.4757 28.2741 14.548 28.1248 14.637 27.9857C14.7279 27.8467 14.8243 27.7261 14.9263 27.6241C15.0283 27.5203 15.1303 27.4396 15.2323 27.3821C15.3342 27.3228 15.426 27.2931 15.5076 27.2931C15.5447 27.2931 15.5762 27.308 15.6022 27.3376C15.63 27.3673 15.6439 27.4072 15.6439 27.4572C15.6439 27.5073 15.6309 27.5639 15.605 27.6269C15.579 27.69 15.5419 27.7558 15.4937 27.8244C15.4455 27.893 15.3852 27.9607 15.3129 28.0275C15.2425 28.0942 15.1618 28.1563 15.0709 28.2138C14.9801 28.2695 14.8799 28.3168 14.7705 28.3557ZM22.5395 26.8369C22.5581 26.7961 22.5673 26.7572 22.5673 26.7201C22.5673 26.6849 22.5534 26.6524 22.5256 26.6228C22.4978 26.5931 22.4644 26.5783 22.4255 26.5783C22.3847 26.5783 22.3485 26.5912 22.317 26.6172C22.2855 26.6432 22.2586 26.6747 22.2363 26.7118C22.2141 26.747 22.1974 26.785 22.1862 26.8258C22.1751 26.8666 22.1696 26.9018 22.1696 26.9315C22.1696 26.9649 22.1779 26.9936 22.1946 27.0177C22.2113 27.04 22.2354 27.0511 22.2669 27.0511C22.3021 27.0511 22.3374 27.0409 22.3726 27.0205C22.4078 27.0001 22.4394 26.9742 22.4672 26.9426C22.4969 26.9111 22.521 26.8759 22.5395 26.8369Z" fill="#353535"/>
<rect x="35.0332" y="18.6223" width="1.97862" height="11.5226" rx="0.989311" fill="#CBCAC8"/>
<rect x="37.4771" y="20.6009" width="1.97862" height="7.56532" rx="0.989311" fill="#CBCAC8"/>
<rect x="39.9219" y="21.2993" width="1.97862" height="6.16865" rx="0.989311" fill="#CBCAC8"/>
<path d="M44.1116 24.3836C44.1116 25.5728 43.3299 26.5368 42.3657 26.5368C42.3657 25.6458 42.3657 25.2746 42.3657 24.4578C42.3657 23.7153 42.3657 22.6016 42.3657 22.2304C43.3299 22.2304 44.1116 23.1944 44.1116 24.3836Z" fill="#CBCAC8"/>
</svg>
