<svg width="88" height="88" viewBox="0 0 88 88" fill="none" xmlns="http://www.w3.org/2000/svg">
<path d="M76.9817 25.3C76.9207 24.6838 76.7044 24.0931 76.353 23.5833C76.0016 23.0735 75.5265 22.6612 74.9724 22.385L45.639 7.71831C45.1296 7.46341 44.5678 7.33069 43.9982 7.33069C43.4286 7.33069 42.8668 7.46341 42.3573 7.71831L13.024 22.385C12.4713 22.6628 11.9978 23.0756 11.6471 23.5851C11.2965 24.0947 11.0803 24.6845 11.0183 25.3C10.978 25.6923 7.49468 64.779 42.5113 80.3513C42.9792 80.5625 43.4867 80.6717 44 80.6717C44.5133 80.6717 45.0208 80.5625 45.4887 80.3513C80.5054 64.779 77.022 25.696 76.9817 25.3V25.3ZM44 72.9556C19.1803 60.9583 18.007 35.354 18.2087 27.995L44 15.0993L69.773 27.9876C69.9087 35.2806 68.5703 61.0536 44 72.9556Z" fill="#F1CB00"/>
<path d="M40.3334 46.1487L31.9257 37.741L26.741 42.9257L40.3334 56.518L61.259 35.5923L56.0744 30.4077L40.3334 46.1487Z" fill="#F1CB00"/>
</svg>
